<?xml version="1.0" standalone="no"?>
<!DOCTYPE svg PUBLIC "-//W3C//DTD SVG 20010904//EN"
 "http://www.w3.org/TR/2001/REC-SVG-20010904/DTD/svg10.dtd">
<svg version="1.0" xmlns="http://www.w3.org/2000/svg"
 width="600.000000pt" height="600.000000pt" viewBox="0 0 600.000000 600.000000"
 preserveAspectRatio="xMidYMid meet">
<metadata>
Created by potrace 1.11, written by Peter Selinger 2001-2013
</metadata>
<g transform="translate(0.000000,600.000000) scale(0.100000,-0.100000)"
fill="#000000" stroke="none">
<path d="M2749 5996 c-2 -2 -38 -7 -78 -10 -41 -4 -95 -11 -120 -16 -26 -5
-66 -11 -91 -15 -193 -27 -513 -130 -742 -238 -122 -58 -361 -193 -366 -208
-2 -5 -8 -9 -14 -9 -10 0 -206 -143 -267 -196 -90 -76 -261 -244 -340 -334
-46 -51 -173 -218 -207 -270 -16 -25 -31 -47 -35 -50 -14 -12 -108 -175 -169
-295 -138 -269 -229 -544 -284 -865 -27 -155 -31 -225 -31 -490 0 -277 6 -357
41 -550 59 -326 191 -678 362 -969 87 -148 244 -366 333 -463 136 -146 257
-263 371 -354 440 -354 933 -565 1513 -646 166 -23 676 -16 822 11 26 5 68 12
93 16 202 29 515 130 759 246 109 52 344 186 349 201 2 4 8 8 13 8 8 0 147 96
159 110 3 3 14 13 26 21 45 30 133 108 238 209 505 487 812 1104 900 1810 14
111 17 634 3 685 -2 11 -8 47 -12 80 -3 33 -18 115 -31 183 -95 469 -302 908
-609 1292 -92 115 -338 360 -455 453 -234 187 -558 374 -801 462 -153 56 -324
107 -439 130 -77 16 -181 35 -220 40 -25 3 -61 8 -80 12 -39 6 -584 15 -591 9z"/>
</g>
</svg>
